<?xml version="1.0" encoding="iso-8859-1"?>
<!-- Generator: Adobe Illustrator 18.1.1, SVG Export Plug-In . SVG Version: 6.00 Build 0)  -->
<svg version="1.1" id="Capa_1" xmlns="http://www.w3.org/2000/svg" xmlns:xlink="http://www.w3.org/1999/xlink" x="0px" y="0px"
	 viewBox="0 0 20.536 20.536" style="enable-background:new 0 0 20.536 20.536;" xml:space="preserve">
<g>
	<path style="fill:#010002;" d="M14.739,12.665c-0.978,0-1.77,0.793-1.77,1.768c0,0.977,0.792,1.768,1.77,1.768
		c0.977,0,1.767-0.791,1.767-1.768C16.506,13.458,15.716,12.665,14.739,12.665z M14.739,15.251c-0.451,0-0.816-0.365-0.816-0.818
		c0-0.451,0.365-0.816,0.816-0.816s0.815,0.365,0.815,0.816C15.556,14.886,15.19,15.251,14.739,15.251z"/>
	<path style="fill:#010002;" d="M2.95,12.665c-0.978,0-1.769,0.793-1.769,1.768c0,0.977,0.791,1.768,1.769,1.768
		c0.975,0,1.768-0.791,1.768-1.768C4.718,13.458,3.925,12.665,2.95,12.665z M2.95,15.251c-0.452,0-0.818-0.365-0.818-0.818
		c0-0.451,0.366-0.816,0.818-0.816c0.45,0,0.815,0.365,0.815,0.816C3.768,14.886,3.4,15.251,2.95,15.251z"/>
	<path style="fill:#010002;" d="M20.2,4.335h-8.369h-0.374H5.419c-0.186,0-0.336,0.15-0.336,0.336v1.932
		c0,0.18,0.141,0.287,0.229,0.287h3.096c0.119,0,0.22,0.066,0.278,0.162l-0.488,0.48C8.137,7.44,8.04,7.376,7.922,7.376H5.083v0.037
		H4.791c-0.188,0-0.336,0.15-0.336,0.338L3.276,8.993L1.01,9.272c-0.188,0-0.337,0.148-0.337,0.336l-0.225,1.205v1.227
		c0,0.148-0.1,0.275-0.235,0.318L0,13.772c0,0.186,0.15,0.338,0.336,0.338H0.53v0.029h0.224c0.027-0.217,0.082-0.426,0.161-0.619
		c0.349-0.775,1.126-1.318,2.034-1.318c0.299,0,0.584,0.061,0.844,0.168l0.021-0.021c0.663,0.326,1.146,0.992,1.242,1.791h0.025
		h0.383h6.996c0.146-1.129,1.109-2.004,2.277-2.004s2.131,0.875,2.274,2.004h3.187c0.188,0,0.338-0.15,0.338-0.338V4.671
		C20.538,4.485,20.388,4.335,20.2,4.335z M7.53,8.987c0,0.188-0.144,0.34-0.317,0.34H6.371H5.557H4.568
		c-0.188,0-0.338-0.15-0.338-0.336l0.674-0.732c0-0.188,0.149-0.336,0.336-0.336h0.316h1.581h0.075c0.175,0,0.317,0.15,0.317,0.338
		L7.53,8.987L7.53,8.987z"/>
</g>
<g>
</g>
<g>
</g>
<g>
</g>
<g>
</g>
<g>
</g>
<g>
</g>
<g>
</g>
<g>
</g>
<g>
</g>
<g>
</g>
<g>
</g>
<g>
</g>
<g>
</g>
<g>
</g>
<g>
</g>
</svg>
